<svg xmlns="http://www.w3.org/2000/svg" width="542" height="461" viewBox="0 0 542 461">
<g>
<path d="M 184.50 157.52 C180.10,158.83 174.39,160.54 171.80,161.33 C169.22,162.13 166.86,162.52 166.55,162.22 C166.25,161.92 166.00,148.07 166.00,131.46 L 166.00 130.00 C166.00,106.19 166.00,101.13 168.33,99.59 C169.00,99.14 169.87,99.00 171.00,98.77 C172.38,98.50 188.35,93.90 206.50,88.54 C224.65,83.19 248.73,76.15 260.00,72.89 C271.27,69.63 281.62,66.56 283.00,66.06 C284.38,65.56 290.23,63.79 296.00,62.13 C309.51,58.23 362.04,42.70 372.65,39.48 C377.13,38.11 381.06,37.00 381.40,37.00 C381.73,37.00 382.00,50.69 382.00,67.42 L 382.00 97.84 L 375.75 99.84 C363.98,103.63 279.95,129.02 272.00,131.19 C270.08,131.72 262.65,133.98 255.50,136.20 C248.35,138.43 238.90,141.27 234.50,142.51 C230.10,143.76 218.85,147.10 209.50,149.96 C200.15,152.81 188.90,156.21 184.50,157.52 ZM 225.00 328.82 C169.25,346.46 167.35,347.02 166.59,346.25 C166.26,345.93 166.00,332.80 166.00,317.08 L 166.00 288.50 L 188.75 281.06 C231.59,267.06 370.50,221.12 375.00,219.46 C375.61,219.23 376.17,219.01 376.68,218.81 C378.47,218.10 379.71,217.61 380.56,217.98 C382.45,218.83 382.39,224.04 382.20,240.91 C382.18,243.08 382.15,245.43 382.13,248.00 C381.97,264.77 381.53,278.77 381.17,279.10 C380.80,279.44 367.23,283.86 351.00,288.92 C334.77,293.99 310.48,301.67 297.00,305.97 C283.52,310.28 251.12,320.56 225.00,328.82 ZM 382.37 187.75 L 381.77 190.00 L 277.88 190.00 C220.75,190.00 174.00,189.63 174.00,189.18 C174.00,188.73 181.31,186.30 190.25,183.78 C199.19,181.25 212.01,177.57 218.75,175.59 C225.49,173.62 236.40,170.43 243.00,168.50 C259.58,163.66 276.82,158.63 287.50,155.50 C292.45,154.05 303.48,150.87 312.00,148.44 C334.47,142.03 350.95,137.24 363.69,133.45 C369.84,131.61 376.41,129.83 378.28,129.48 L 381.68 128.84 L 382.34 146.17 C383.15,167.64 383.16,184.78 382.37,187.75 ZM 193.65 249.95 C179.44,253.83 167.70,257.00 167.57,257.00 C166.30,257.00 166.00,252.79 166.00,234.83 L 166.00 214.00 L 243.67 214.00 C286.38,214.00 321.08,214.25 320.77,214.56 C320.16,215.18 304.69,219.61 279.00,226.53 C269.92,228.97 258.45,232.11 253.50,233.51 C244.11,236.16 236.45,238.26 193.65,249.95 ZM 251.01 412.00 L 242.50 424.96 L 236.25 424.98 C232.70,424.99 230.00,424.56 230.00,423.99 C230.00,423.44 238.18,410.61 248.17,395.49 L 266.34 368.00 L 323.11 368.00 L 322.50 376.50 L 286.50 377.50 L 286.18 381.92 C286.01,384.35 286.13,387.39 286.45,388.67 C287.04,390.99 287.09,391.00 303.52,391.00 L 320.00 391.00 L 320.00 394.80 C320.00,396.89 319.46,399.14 318.80,399.80 C317.97,400.63 312.75,401.00 301.76,401.00 L 285.91 401.00 L 286.21 408.25 L 286.50 415.50 L 325.11 416.04 L 324.50 424.50 L 274.50 424.50 L 274.20 418.25 L 273.90 412.00 ZM 369.37 424.36 C366.69,425.24 362.02,426.18 359.00,426.45 C350.75,427.20 335.18,423.24 330.77,419.27 C329.12,417.80 329.15,417.51 331.20,413.86 C332.39,411.74 333.68,410.00 334.06,410.00 C334.44,410.00 336.72,411.09 339.12,412.43 C344.61,415.47 354.67,417.32 360.74,416.41 C366.11,415.61 370.00,412.31 370.00,408.57 C370.00,405.12 367.04,403.46 357.50,401.54 C337.59,397.55 331.00,393.27 331.00,384.33 C331.00,378.06 333.97,373.58 340.35,370.22 C345.15,367.69 346.34,367.51 358.00,367.50 C368.76,367.50 371.16,367.81 375.25,369.69 C379.73,371.76 379.94,372.03 379.00,374.51 C377.65,378.04 377.04,379.69 375.95,380.09 C375.02,380.44 373.73,379.86 371.32,378.77 L 371.25 378.73 C364.43,375.65 350.39,375.57 346.33,378.61 C342.80,381.24 342.67,384.66 346.00,387.14 C347.38,388.17 353.67,390.16 360.00,391.58 C373.94,394.70 378.85,397.16 381.36,402.30 C385.49,410.77 380.01,420.87 369.37,424.36 ZM 180.68 422.63 C179.09,424.69 178.01,425.00 172.43,425.00 C168.89,425.00 166.00,424.78 166.00,424.51 C166.00,424.24 170.16,417.47 175.25,409.47 C180.34,401.47 185.70,393.03 187.17,390.72 C190.58,385.34 190.63,382.90 187.43,379.70 C185.59,377.86 183.33,376.94 179.52,376.46 C175.06,375.90 174.12,375.43 173.77,373.56 C173.53,372.33 173.70,370.35 174.14,369.16 C174.82,367.32 175.71,367.00 180.22,367.01 C185.91,367.02 194.22,370.26 197.16,373.61 C198.82,375.51 227.00,423.56 227.00,424.50 C227.00,424.77 224.14,425.00 220.65,425.00 C212.71,425.00 212.59,424.87 202.49,405.25 C200.15,400.71 198.14,398.01 197.13,398.02 C196.12,398.04 193.01,402.30 189.00,409.15 C185.43,415.26 181.68,421.32 180.68,422.63 ZM 259.00 401.55 C259.00,402.82 260.26,403.04 266.25,402.79 L 273.50 402.50 L 273.78 391.25 C273.95,384.72 273.67,380.00 273.13,380.00 C271.86,380.00 259.00,399.61 259.00,401.55 Z" fill="rgb(174,9,4)"/>
<path d="M 455.34 139.72 C455.67,141.74 455.84,143.49 455.72,143.60 C455.06,144.20 453.00,140.79 453.00,139.10 C453.00,135.51 454.73,135.96 455.34,139.72 ZM 113.27 138.26 C113.54,140.04 113.70,141.57 113.63,141.65 C113.18,142.17 111.00,138.82 111.00,137.60 C111.00,134.60 112.79,135.12 113.27,138.26 ZM 437.85 262.00 C437.86,264.38 436.51,267.17 435.72,266.39 C434.66,265.33 434.84,261.78 435.91,262.45 C436.42,262.76 437.06,262.45 437.34,261.76 C437.68,260.91 437.84,260.98 437.85,262.00 ZM 421.14 156.29 C422.46,158.64 421.89,160.18 420.10,159.07 C419.23,158.53 418.98,157.51 419.42,156.35 C420.10,154.58 420.18,154.58 421.14,156.29 ZM 96.00 263.38 C96.00,265.81 94.20,266.21 93.48,263.94 C93.12,262.79 93.08,261.58 93.41,261.26 C93.73,260.93 94.00,261.22 94.00,261.89 C94.00,262.57 94.45,262.84 95.00,262.50 C95.55,262.16 96.00,262.56 96.00,263.38 ZM 472.41 257.63 C471.52,261.31 471.19,261.65 470.43,259.67 C470.08,258.77 470.53,257.32 471.45,256.40 C472.98,254.88 473.05,254.96 472.41,257.63 ZM 129.00 248.50 C129.00,249.32 128.55,250.00 128.00,250.00 C127.45,250.00 127.00,249.32 127.00,248.50 C127.00,247.68 127.45,247.00 128.00,247.00 C128.55,247.00 129.00,247.68 129.00,248.50 ZM 490.15 187.50 C490.15,188.02 489.67,188.61 489.08,188.81 C488.48,189.01 488.00,188.42 488.00,187.50 C488.00,186.58 488.48,185.99 489.08,186.19 C489.67,186.39 490.15,186.98 490.15,187.50 Z" fill="rgb(208,164,157)"/>
<path d="M 437.85 262.00 C437.84,260.98 437.68,260.91 437.34,261.76 C437.06,262.45 436.42,262.76 435.91,262.45 C435.51,262.20 435.24,262.54 435.10,263.11 C434.90,262.01 434.71,260.64 434.51,259.00 C434.16,255.98 432.81,248.10 431.53,241.50 C430.24,234.90 428.42,225.23 427.49,220.00 C423.93,200.05 420.94,184.44 420.41,183.00 C419.57,180.70 418.57,183.05 415.97,193.50 C414.73,198.45 413.28,203.06 412.74,203.75 C411.96,204.74 383.48,205.00 276.33,205.00 L 140.90 205.00 L 139.57 208.25 C138.84,210.04 136.06,220.16 133.41,230.75 C131.57,238.08 129.84,244.49 128.86,247.73 C128.68,247.30 128.36,247.00 128.00,247.00 C127.75,247.00 127.52,247.14 127.35,247.37 C126.38,242.92 124.55,233.31 122.60,222.25 C115.02,179.34 113.91,173.56 113.04,172.66 C111.69,171.27 111.22,172.99 108.55,189.06 C107.14,197.55 104.66,212.15 103.03,221.50 C101.41,230.85 99.13,244.12 97.97,251.00 C96.99,256.81 96.36,260.51 95.88,262.75 C95.71,262.38 95.38,262.26 95.00,262.50 C94.45,262.84 94.00,262.57 94.00,261.89 C94.00,261.22 93.73,260.93 93.41,261.26 C93.22,261.45 93.15,261.93 93.20,262.54 C93.08,261.87 93.01,261.15 93.01,260.50 C93.00,258.85 91.86,251.65 90.47,244.50 C89.09,237.35 87.31,227.90 86.53,223.50 C84.82,213.90 78.22,179.43 77.48,176.25 C76.21,170.78 74.56,174.98 70.02,195.25 L 67.84 205.00 L 50.99 205.00 C34.81,205.00 34.11,204.92 33.48,202.92 C33.11,201.78 33.07,200.59 33.38,200.28 C33.70,199.97 40.55,199.67 48.61,199.61 L 63.27 199.50 L 64.49 194.50 C65.16,191.75 67.17,183.20 68.95,175.50 C73.57,155.52 76.12,146.00 76.86,146.00 C77.48,146.01 78.95,153.35 86.58,194.50 C92.17,224.64 93.43,230.32 94.61,230.71 C95.23,230.91 95.98,229.60 96.30,227.79 C96.62,225.98 97.60,220.45 98.49,215.50 C99.93,207.50 105.55,174.78 108.03,160.00 C108.54,156.98 109.48,150.45 110.12,145.50 C110.47,142.82 110.87,140.31 111.22,138.50 C111.72,139.83 112.99,141.67 113.50,141.70 C114.52,146.55 115.94,153.93 117.41,162.25 C124.12,200.14 127.89,219.29 128.85,220.25 C129.56,220.96 134.37,206.83 135.20,201.61 C135.49,199.76 138.74,199.72 271.07,199.92 C392.30,200.11 406.78,199.97 407.93,198.59 C409.17,197.09 414.35,178.93 417.65,164.50 C418.37,161.35 418.87,159.21 419.23,157.77 C419.32,158.31 419.62,158.77 420.10,159.07 C420.89,159.56 421.44,159.53 421.70,159.15 C422.34,162.10 423.20,166.47 424.05,171.25 C430.45,207.09 435.10,230.50 435.98,231.38 C437.23,232.63 437.49,231.77 439.93,218.00 C441.06,211.68 442.87,201.55 443.96,195.50 C445.05,189.45 446.61,180.45 447.42,175.50 C448.23,170.55 449.81,161.32 450.93,155.00 C452.06,148.68 452.98,142.06 452.99,140.31 C452.99,140.01 453.00,139.72 453.02,139.44 C453.25,141.20 455.10,144.16 455.72,143.60 C455.73,143.59 455.74,143.56 455.75,143.51 C456.42,146.72 457.18,150.81 457.94,155.29 C464.69,195.21 465.88,202.03 467.84,212.13 C468.95,217.83 470.13,224.19 470.47,226.25 C471.12,230.21 472.53,231.19 473.35,228.25 C473.62,227.29 475.27,220.65 477.02,213.50 C478.77,206.35 480.42,200.27 480.68,200.00 C480.95,199.73 482.48,199.44 484.08,199.38 C488.51,199.19 490.24,199.21 490.77,198.42 C491.11,197.93 490.97,197.12 490.74,195.73 C490.70,195.49 490.65,195.23 490.61,194.96 C490.25,192.73 489.43,190.05 488.77,189.00 C488.73,188.94 488.69,188.88 488.66,188.82 C488.79,188.86 488.93,188.86 489.08,188.81 C489.67,188.61 490.15,188.02 490.15,187.50 C490.15,187.42 490.14,187.33 490.12,187.25 C496.14,190.26 514.00,201.06 513.99,201.91 C513.99,202.23 512.53,203.44 510.74,204.58 C508.96,205.73 503.87,208.99 499.44,211.83 C495.01,214.67 491.02,217.00 490.58,217.00 C489.84,217.00 490.30,212.98 491.69,207.18 C492.21,205.03 491.98,204.89 488.48,205.18 C488.09,205.22 487.74,205.22 487.43,205.22 C486.94,205.22 486.53,205.22 486.17,205.34 C484.18,206.02 483.42,210.34 476.95,238.21 C475.13,246.06 473.69,251.78 472.60,255.42 C472.40,255.48 472.03,255.83 471.45,256.40 C470.53,257.32 470.08,258.77 470.43,259.67 C470.51,259.88 470.58,260.07 470.66,260.22 C470.21,260.52 470.00,259.44 470.00,257.01 C470.00,255.42 469.36,251.06 468.57,247.32 C467.78,243.57 465.73,232.40 464.00,222.50 C462.27,212.60 460.43,202.02 459.90,199.00 C459.37,195.98 458.16,189.04 457.21,183.58 C456.27,178.13 455.03,173.51 454.46,173.32 C453.86,173.12 452.67,177.31 451.64,183.24 C450.66,188.88 448.98,198.23 447.91,204.00 C444.18,224.20 439.44,251.57 438.51,258.38 C438.28,260.07 438.05,261.49 437.82,262.65 C437.84,262.43 437.85,262.21 437.85,262.00 ZM 95.15 265.38 C94.78,266.13 94.45,265.75 93.96,264.97 C93.91,264.89 93.86,264.79 93.80,264.68 C94.20,265.34 94.71,265.56 95.15,265.38 ZM 437.29 264.91 C436.94,266.09 436.60,266.60 436.26,266.45 C436.61,266.26 436.99,265.67 437.29,264.91 ZM 420.39 155.13 C420.48,155.16 420.58,155.25 420.69,155.35 C420.73,155.40 420.80,155.57 420.89,155.85 C420.68,155.50 420.53,155.26 420.39,155.13 ZM 488.04 187.08 C488.02,186.82 488.06,186.61 488.17,186.50 C488.19,186.48 488.22,186.47 488.28,186.48 C488.17,186.63 488.08,186.84 488.04,187.08 ZM 453.78 136.64 C453.80,136.62 453.82,136.61 453.85,136.60 C453.88,136.57 453.92,136.60 453.96,136.66 C453.90,136.64 453.84,136.64 453.78,136.64 Z" fill="rgb(191,142,57)"/>
<path d="M 0.00 230.50 L 0.00 0.00 L 271.00 0.00 L 542.00 0.00 L 542.00 230.50 L 542.00 461.00 L 271.00 461.00 L 0.00 461.00 L 0.00 230.50 ZM 369.37 424.36 C380.01,420.87 385.49,410.77 381.36,402.30 C378.85,397.16 373.94,394.70 360.00,391.58 C353.67,390.16 347.38,388.17 346.00,387.14 C342.67,384.66 342.80,381.24 346.33,378.61 C350.39,375.57 364.43,375.65 371.25,378.73 C376.51,381.12 376.48,381.14 379.00,374.51 C379.94,372.03 379.73,371.76 375.25,369.69 C371.16,367.81 368.76,367.50 358.00,367.50 C346.34,367.51 345.15,367.69 340.35,370.22 C333.97,373.58 331.00,378.06 331.00,384.33 C331.00,393.27 337.59,397.55 357.50,401.54 C367.04,403.46 370.00,405.12 370.00,408.57 C370.00,412.31 366.11,415.61 360.74,416.41 C354.67,417.32 344.61,415.47 339.12,412.43 C336.72,411.09 334.44,410.00 334.06,410.00 C333.68,410.00 332.39,411.74 331.20,413.86 C329.15,417.51 329.12,417.80 330.77,419.27 C335.18,423.24 350.75,427.20 359.00,426.45 C362.02,426.18 366.69,425.24 369.37,424.36 ZM 180.68 422.63 C181.68,421.32 185.43,415.26 189.00,409.15 C193.01,402.30 196.12,398.04 197.13,398.02 C198.14,398.01 200.15,400.71 202.49,405.25 C212.59,424.87 212.71,425.00 220.65,425.00 C224.14,425.00 227.00,424.77 227.00,424.50 C227.00,423.56 198.82,375.51 197.16,373.61 C194.22,370.26 185.91,367.02 180.22,367.01 C175.71,367.00 174.82,367.32 174.14,369.16 C173.70,370.35 173.53,372.33 173.77,373.56 C174.12,375.43 175.06,375.90 179.52,376.46 C183.33,376.94 185.59,377.86 187.43,379.70 C190.63,382.90 190.58,385.34 187.17,390.72 C185.70,393.03 180.34,401.47 175.25,409.47 C170.16,417.47 166.00,424.24 166.00,424.51 C166.00,424.78 168.89,425.00 172.43,425.00 C178.01,425.00 179.09,424.69 180.68,422.63 ZM 246.76 418.48 L 251.01 412.00 L 262.46 412.00 L 273.90 412.00 L 274.20 418.25 L 274.50 424.50 L 299.50 424.50 L 324.50 424.50 L 324.81 420.27 L 325.11 416.04 L 305.81 415.77 L 286.50 415.50 L 286.21 408.25 L 285.91 401.00 L 301.76 401.00 C312.75,401.00 317.97,400.63 318.80,399.80 C319.46,399.14 320.00,396.89 320.00,394.80 L 320.00 391.00 L 303.52 391.00 C287.09,391.00 287.04,390.99 286.45,388.67 C286.13,387.39 286.01,384.35 286.18,381.92 L 286.50 377.50 L 304.50 377.00 L 322.50 376.50 L 322.81 372.25 L 323.11 368.00 L 294.73 368.00 L 266.34 368.00 L 248.17 395.49 C238.18,410.61 230.00,423.44 230.00,423.99 C230.00,424.56 232.70,424.99 236.25,424.98 L 242.50 424.96 L 246.76 418.48 ZM 225.00 328.82 C251.12,320.56 283.52,310.28 297.00,305.97 C310.48,301.67 334.77,293.99 351.00,288.92 C367.23,283.86 380.80,279.44 381.17,279.10 C381.53,278.77 381.97,264.77 382.13,248.00 C382.46,213.96 383.09,216.47 375.00,219.46 C370.50,221.12 231.59,267.06 188.75,281.06 L 166.00 288.50 L 166.00 317.08 C166.00,332.80 166.26,345.93 166.59,346.25 C167.35,347.02 169.25,346.46 225.00,328.82 ZM 438.51 258.38 C439.44,251.57 444.18,224.20 447.91,204.00 C448.98,198.23 450.66,188.88 451.64,183.24 C452.67,177.31 453.86,173.12 454.46,173.32 C455.03,173.51 456.27,178.13 457.21,183.58 C458.16,189.04 459.37,195.98 459.90,199.00 C460.43,202.02 462.27,212.60 464.00,222.50 C465.73,232.40 467.78,243.57 468.57,247.32 C469.36,251.06 470.00,255.42 470.00,257.01 C470.00,264.71 472.15,258.91 476.95,238.21 C485.37,201.96 484.11,205.55 488.48,205.18 C491.98,204.89 492.21,205.03 491.69,207.18 C490.30,212.98 489.84,217.00 490.58,217.00 C491.02,217.00 495.01,214.67 499.44,211.83 C503.87,208.99 508.96,205.73 510.74,204.58 C512.53,203.44 513.99,202.23 513.99,201.91 C514.00,200.90 488.81,185.86 488.17,186.50 C487.84,186.82 488.11,187.95 488.77,189.00 C489.43,190.05 490.25,192.73 490.61,194.96 C491.31,199.36 491.78,199.05 484.08,199.38 C482.48,199.44 480.95,199.73 480.68,200.00 C480.42,200.27 478.77,206.35 477.02,213.50 C475.27,220.65 473.62,227.29 473.35,228.25 C472.53,231.19 471.12,230.21 470.47,226.25 C470.13,224.19 468.95,217.83 467.84,212.13 C465.88,202.03 464.69,195.21 457.94,155.29 C456.15,144.72 454.31,136.31 453.85,136.60 C453.38,136.88 453.00,138.55 452.99,140.31 C452.98,142.06 452.06,148.68 450.93,155.00 C449.81,161.32 448.23,170.55 447.42,175.50 C446.61,180.45 445.05,189.45 443.96,195.50 C442.87,201.55 441.06,211.68 439.93,218.00 C437.49,231.77 437.23,232.63 435.98,231.38 C435.10,230.50 430.45,207.09 424.05,171.25 C422.55,162.86 421.04,155.71 420.69,155.35 C419.95,154.62 419.82,155.02 417.65,164.50 C414.35,178.93 409.17,197.09 407.93,198.59 C406.78,199.97 392.30,200.11 271.07,199.92 C138.74,199.72 135.49,199.76 135.20,201.61 C134.37,206.83 129.56,220.96 128.85,220.25 C127.89,219.29 124.12,200.14 117.41,162.25 C114.76,147.27 112.30,135.34 111.94,135.75 C111.58,136.16 110.76,140.55 110.12,145.50 C109.48,150.45 108.54,156.98 108.03,160.00 C105.55,174.78 99.93,207.50 98.49,215.50 C97.60,220.45 96.62,225.98 96.30,227.79 C95.98,229.60 95.23,230.91 94.61,230.71 C93.43,230.32 92.17,224.64 86.58,194.50 C78.95,153.35 77.48,146.01 76.86,146.00 C76.12,146.00 73.57,155.52 68.95,175.50 C67.17,183.20 65.16,191.75 64.49,194.50 L 63.27 199.50 L 48.61 199.61 C40.55,199.67 33.70,199.97 33.38,200.28 C33.07,200.59 33.11,201.78 33.48,202.92 C34.11,204.92 34.81,205.00 50.99,205.00 L 67.84 205.00 L 70.02 195.25 C74.56,174.98 76.21,170.78 77.48,176.25 C78.22,179.43 84.82,213.90 86.53,223.50 C87.31,227.90 89.09,237.35 90.47,244.50 C91.86,251.65 93.00,258.85 93.01,260.50 C93.02,262.15 93.45,264.16 93.96,264.97 C95.21,266.95 95.38,266.37 97.97,251.00 C99.13,244.12 101.41,230.85 103.03,221.50 C104.66,212.15 107.14,197.55 108.55,189.06 C111.22,172.99 111.69,171.27 113.04,172.66 C113.91,173.56 115.02,179.34 122.60,222.25 C125.30,237.51 127.74,249.99 128.04,250.00 C128.33,250.00 130.75,241.34 133.41,230.75 C136.06,220.16 138.84,210.04 139.57,208.25 L 140.90 205.00 L 276.33 205.00 C383.48,205.00 411.96,204.74 412.74,203.75 C413.28,203.06 414.73,198.45 415.97,193.50 C418.57,183.05 419.57,180.70 420.41,183.00 C420.94,184.44 423.93,200.05 427.49,220.00 C428.42,225.23 430.24,234.90 431.53,241.50 C432.81,248.10 434.16,255.98 434.51,259.00 C435.71,269.17 437.06,268.97 438.51,258.38 ZM 193.65 249.95 C236.45,238.26 244.11,236.16 253.50,233.51 C258.45,232.11 269.92,228.97 279.00,226.53 C304.69,219.61 320.16,215.18 320.77,214.56 C321.08,214.25 286.38,214.00 243.67,214.00 L 166.00 214.00 L 166.00 234.83 C166.00,252.79 166.30,257.00 167.57,257.00 C167.70,257.00 179.44,253.83 193.65,249.95 ZM 382.37 187.75 C383.16,184.78 383.15,167.64 382.34,146.17 L 381.68 128.84 L 378.28 129.48 C376.41,129.83 369.84,131.61 363.69,133.45 C350.95,137.24 334.47,142.03 312.00,148.44 C303.48,150.87 292.45,154.05 287.50,155.50 C276.82,158.63 259.58,163.66 243.00,168.50 C236.40,170.43 225.49,173.62 218.75,175.59 C212.01,177.57 199.19,181.25 190.25,183.78 C181.31,186.30 174.00,188.73 174.00,189.18 C174.00,189.63 220.75,190.00 277.88,190.00 L 381.77 190.00 L 382.37 187.75 ZM 184.50 157.52 C188.90,156.21 200.15,152.81 209.50,149.96 C218.85,147.10 230.10,143.76 234.50,142.51 C238.90,141.27 248.35,138.43 255.50,136.20 C262.65,133.98 270.08,131.72 272.00,131.19 C279.95,129.02 363.98,103.63 375.75,99.84 L 382.00 97.84 L 382.00 67.42 C382.00,50.69 381.73,37.00 381.40,37.00 C381.06,37.00 377.13,38.11 372.65,39.48 C362.04,42.70 309.51,58.23 296.00,62.13 C290.23,63.79 284.38,65.56 283.00,66.06 C281.62,66.56 271.27,69.63 260.00,72.89 C248.73,76.15 224.65,83.19 206.50,88.54 C188.35,93.90 172.38,98.50 171.00,98.77 C165.92,99.78 166.00,99.26 166.00,131.46 C166.00,148.07 166.25,161.92 166.55,162.22 C166.86,162.52 169.22,162.13 171.80,161.33 C174.39,160.54 180.10,158.83 184.50,157.52 ZM 259.00 401.55 C259.00,399.61 271.86,380.00 273.13,380.00 C273.67,380.00 273.95,384.72 273.78,391.25 L 273.50 402.50 L 266.25 402.79 C260.26,403.04 259.00,402.82 259.00,401.55 Z" fill="rgba(0,0,0,0)"/>
</g>
</svg>