<svg xmlns="http://www.w3.org/2000/svg" width="386" height="199" viewBox="0 0 386 199">
  <g transform="translate(55.94,0)">
    <path fill="#FFFFFF" fill-rule="evenodd" d="M68.58895705521472 121.47239263803681H50.79754601226994L39.57055214723926 91.90184049079754Q37.423312883435585 86.38036809815951 34.60122699386503 77.17791411042944Q32.20858895705521 85.03067484662577 29.754601226993866 91.59509202453988L18.588957055214724 121.47239263803681H0.9202453987730062L25.950920245398773 56.38036809815951L16.441717791411044 31.533742331288337H33.43558282208589L43.190184049079754 56.38036809815951Z"/>
    <path fill="#AE0904" fill-rule="evenodd" d="M64.60122699386503 121.47239263803681 106.56441717791411 31.533742331288337H187.7914110429448V46.74846625766871H143.25153374233128V66.74846625766871H184.29447852760734V81.96319018404907H143.25153374233128V106.31901840490798H189.4478527607362V121.47239263803681H125.09202453987729V100.30674846625766H93.92638036809815L84.7239263803681 121.47239263803681ZM100.61349693251533 84.60122699386503H125.27607361963189V45.15337423312883H118.22085889570552Z"/>
    <path fill="#FFFFFF" fill-rule="evenodd" d="M200.06134969325151 92.20858895705521 217.73006134969324 90.49079754601226Q219.32515337423314 99.38650306748465 224.20245398773005 103.55828220858895Q229.079754601227 107.73006134969324 237.36196319018404 107.73006134969324Q246.13496932515338 107.73006134969324 250.58282208588957 104.01840490797545Q255.03067484662577 100.30674846625766 255.03067484662577 95.33742331288343Q255.03067484662577 92.14723926380368 253.159509202454 89.9079754601227Q251.2883435582822 87.66871165644172 246.62576687116564 86.0122699386503Q243.43558282208588 84.9079754601227 232.08588957055213 82.08588957055215Q217.4846625766871 78.46625766871165 211.59509202453987 73.19018404907976Q203.31288343558282 65.76687116564418 203.31288343558282 55.0920245398773Q203.31288343558282 48.22085889570552 207.2085889570552 42.23926380368098Q211.1042944785276 36.257668711656436 218.4355828220859 33.12883435582822Q225.76687116564418 30.0 236.13496932515338 30.0Q253.06748466257667 30.0 261.62576687116564 37.423312883435585Q270.1840490797546 44.84662576687117 270.6134969325153 57.239263803680984L252.45398773006133 58.03680981595092Q251.2883435582822 51.104294478527606 247.45398773006133 48.06748466257669Q243.61963190184048 45.03067484662577 235.95092024539878 45.03067484662577Q228.0368098159509 45.03067484662577 223.55828220858896 48.28220858895705Q220.67484662576686 50.3680981595092 220.67484662576686 53.86503067484662Q220.67484662576686 57.05521472392638 223.37423312883436 59.325153374233125Q226.80981595092024 62.20858895705521 240.06134969325154 65.33742331288343Q253.31288343558282 68.46625766871165 259.6625766871166 71.80981595092024Q266.0122699386503 75.15337423312883 269.601226993865 80.95092024539878Q273.19018404907973 86.74846625766871 273.19018404907973 95.2760736196319Q273.19018404907973 103.00613496932516 268.89570552147234 109.75460122699387Q264.601226993865 116.50306748466258 256.7484662576687 119.78527607361963Q248.8957055214724 123.06748466257669 237.17791411042944 123.06748466257669Q220.12269938650306 123.06748466257669 210.98159509202452 115.1840490797546Q201.840490797546 107.30061349693251 200.06134969325151 92.20858895705521Z"/>
  </g>
  <g transform="translate(30.14,0)"><path fill="#B0B0B0" fill-rule="evenodd" d="M7.784594410361281 163.3946830265849V154.92842535787324L0.081799591002045 143.4083162917519H3.2992501704158146L7.2392638036809815 149.4342194955692Q8.329925017041582 151.12474437627813 9.270620313565098 152.81526925698708Q10.170415814587594 151.24744376278122 11.451942740286299 149.28425357873212L15.323790047716429 143.4083162917519H18.404907975460123L10.429447852760736 154.92842535787324V163.3946830265849ZM30.374914792092707 158.73210633946832 32.9107021131561 159.04567143830948Q32.310838445807775 161.2678936605317 30.68847989093388 162.49488752556238Q29.066121336059986 163.72188139059307 26.5439672801636 163.72188139059307Q23.367416496250854 163.72188139059307 21.50647580095433 161.7655078391275Q19.645535105657807 159.80913428766192 19.645535105657807 156.27811860940696Q19.645535105657807 152.62440354464897 21.52692569870484 150.60668029993184Q23.408316291751873 148.58895705521473 26.407634628493525 148.58895705521473Q29.311520109066123 148.58895705521473 31.152010906612134 150.56578050443082Q32.992501704158144 152.5426039536469 32.992501704158144 156.1281526925699Q32.992501704158144 156.346284935242 32.97886843899114 156.78254942058624H22.1813224267212Q22.317655078391276 159.16837082481257 23.531015678254942 160.43626448534428Q24.744376278118608 161.70415814587597 26.557600545330608 161.70415814587597Q27.90729379686435 161.70415814587597 28.861622358554875 160.99522835719156Q29.8159509202454 160.28629856850716 30.374914792092707 158.73210633946832ZM22.317655078391276 154.76482617586913H30.40218132242672Q30.23858214042263 152.93796864349014 29.47511929107021 152.02453987730064Q28.302658486707564 150.60668029993184 26.43490115882754 150.60668029993184Q24.744376278118608 150.60668029993184 23.592365371506475 151.73824130879348Q22.44035446489434 152.8698023176551 22.317655078391276 154.76482617586913ZM41.34969325153374 161.1997273346967 41.70415814587594 163.36741649625088Q40.66802999318337 163.585548738923 39.85003408316292 163.585548738923Q38.51397409679618 163.585548738923 37.77777777777778 163.16291751874576Q37.041581458759374 162.74028629856852 36.74164962508521 162.05180640763464Q36.441717791411044 161.36332651670077 36.441717791411044 159.15473755964555V150.82481254260398H34.64212678936605V148.91615541922292H36.441717791411044V145.33060668029995L38.882072256305385 143.85821404226314V148.91615541922292H41.34969325153374V150.82481254260398H38.882072256305385V159.29107021131563Q38.882072256305385 160.3408316291752 39.01158827539196 160.64076346284935Q39.14110429447853 160.94069529652353 39.434219495569195 161.11792774369462Q39.72733469665985 161.29516019086574 40.272665303340155 161.29516019086574Q40.681663258350376 161.29516019086574 41.34969325153374 161.1997273346967ZM49.6250852079073 163.3946830265849 57.30061349693251 143.4083162917519H60.14996591683708L68.32992501704157 163.3946830265849H65.31697341513292L62.98568507157464 157.34151329243355H54.628493524199044L52.43353783231084 163.3946830265849ZM55.391956373551466 155.18745739604637H62.16768916155419L60.081799591002046 149.65235173824132Q59.12747102931152 147.13019768234494 58.663940013633265 145.50783912747104Q58.282208588957054 147.4301295160191 57.58691206543968 149.32515337423314ZM70.12951601908657 163.3946830265849V148.91615541922292H72.33810497614178V150.97477845944104Q73.93319700068166 148.58895705521473 76.94614860259031 148.58895705521473Q78.25494205862304 148.58895705521473 79.35241990456714 149.0593047034765Q80.44989775051124 149.52965235173826 80.99522835719154 150.2931152010907Q81.54055896387185 151.0565780504431 81.75869120654396 152.10633946830268Q81.89502385821405 152.78800272665305 81.89502385821405 154.49216087252898V163.3946830265849H79.44103612815269V154.58759372869804Q79.44103612815269 153.08793456032723 79.15473755964553 152.34492160872531Q78.86843899113838 151.6019086571234 78.13905930470347 151.15882753919567Q77.40967961826857 150.7157464212679 76.42808452624404 150.7157464212679Q74.86025903203817 150.7157464212679 73.72188139059304 151.71097477845944Q72.58350374914792 152.706203135651 72.58350374914792 155.48738922972055V163.3946830265849ZM84.74437627811861 156.1554192229039Q84.74437627811861 152.13360599863668 86.98023176550784 150.19768234492162Q88.84798909338787 148.58895705521473 91.53374233128834 148.58895705521473Q94.51942740286299 148.58895705521473 96.41445126107703 150.5453306066803Q98.30947511929106 152.50170415814588 98.30947511929106 155.9509202453988Q98.30947511929106 158.74573960463533 97.47102931152011 160.3476482617587Q96.63258350374915 161.94955691888208 95.03067484662577 162.83571915473757Q93.42876618950238 163.72188139059307 91.53374233128834 163.72188139059307Q88.49352419904567 163.72188139059307 86.61895023858213 161.772324471711Q84.74437627811861 159.82276755282894 84.74437627811861 156.1554192229039ZM87.26653033401499 156.1554192229039Q87.26653033401499 158.93660531697344 88.47989093387866 160.3203817314247Q89.69325153374233 161.70415814587597 91.53374233128834 161.70415814587597Q93.36059986366735 161.70415814587597 94.57396046353101 160.3135650988412Q95.78732106339467 158.92297205180643 95.78732106339467 156.07361963190186Q95.78732106339467 153.38786639400138 94.5671438309475 152.00408997955012Q93.34696659850033 150.62031356509885 91.53374233128834 150.62031356509885Q89.69325153374233 150.62031356509885 88.47989093387866 151.9972733469666Q87.26653033401499 153.37423312883436 87.26653033401499 156.1554192229039ZM106.5439672801636 161.1997273346967 106.89843217450579 163.36741649625088Q105.86230402181322 163.585548738923 105.04430811179277 163.585548738923Q103.70824812542604 163.585548738923 102.97205180640763 163.16291751874576Q102.23585548738923 162.74028629856852 101.93592365371507 162.05180640763464Q101.6359918200409 161.36332651670077 101.6359918200409 159.15473755964555V150.82481254260398H99.83640081799591V148.91615541922292H101.6359918200409V145.33060668029995L104.07634628493524 143.85821404226314V148.91615541922292H106.5439672801636V150.82481254260398H104.07634628493524V159.29107021131563Q104.07634628493524 160.3408316291752 104.2058623040218 160.64076346284935Q104.33537832310837 160.94069529652353 104.62849352419903 161.11792774369462Q104.9216087252897 161.29516019086574 105.46693933197 161.29516019086574Q105.87593728698023 161.29516019086574 106.5439672801636 161.1997273346967ZM108.94342194955692 163.3946830265849V143.4083162917519H111.39740967961828V150.57941376959783Q113.11520109066122 148.58895705521473 115.73278800272666 148.58895705521473Q117.34151329243355 148.58895705521473 118.52760736196319 149.2229038854806Q119.71370143149285 149.85685071574645 120.22494887525562 150.97477845944104Q120.7361963190184 152.09270620313566 120.7361963190184 154.21949556918884V163.3946830265849H118.28220858895706V154.21949556918884Q118.28220858895706 152.37900477164283 117.48466257668713 151.54055896387186Q116.68711656441718 150.7021131561009 115.22835719154737 150.7021131561009Q114.13769597818678 150.7021131561009 113.17655078391275 151.2678936605317Q112.21540558963872 151.83367416496253 111.8064076346285 152.80163599182006Q111.39740967961828 153.7695978186776 111.39740967961828 155.47375596455353V163.3946830265849ZM134.3830947511929 158.73210633946832 136.9188820722563 159.04567143830948Q136.31901840490798 161.2678936605317 134.69665985003408 162.49488752556238Q133.07430129516018 163.72188139059307 130.5521472392638 163.72188139059307Q127.37559645535106 163.72188139059307 125.51465576005454 161.7655078391275Q123.65371506475802 159.80913428766192 123.65371506475802 156.27811860940696Q123.65371506475802 152.62440354464897 125.53510565780505 150.60668029993184Q127.41649625085208 148.58895705521473 130.41581458759373 148.58895705521473Q133.31970006816633 148.58895705521473 135.16019086571234 150.56578050443082Q137.00068166325835 152.5426039536469 137.00068166325835 156.1281526925699Q137.00068166325835 156.346284935242 136.98704839809136 156.78254942058624H126.18950238582141Q126.32583503749149 159.16837082481257 127.53919563735515 160.43626448534428Q128.7525562372188 161.70415814587597 130.56578050443082 161.70415814587597Q131.91547375596457 161.70415814587597 132.8698023176551 160.99522835719156Q133.8241308793456 160.28629856850716 134.3830947511929 158.73210633946832ZM126.32583503749149 154.76482617586913H134.41036128152692Q134.24676209952284 152.93796864349014 133.48329925017043 152.02453987730064Q132.31083844580778 150.60668029993184 130.44308111792776 150.60668029993184Q128.7525562372188 150.60668029993184 127.60054533060668 151.73824130879348Q126.44853442399454 152.8698023176551 126.32583503749149 154.76482617586913ZM139.972733469666 163.3946830265849V148.91615541922292H142.1813224267212V151.11111111111114Q143.02658486707566 149.57055214723928 143.74233128834356 149.07975460122702Q144.45807770961144 148.58895705521473 145.31697341513294 148.58895705521473Q146.55760054533062 148.58895705521473 147.83912747102931 149.37968643490117L146.99386503067484 151.65644171779144Q146.09406952965236 151.12474437627813 145.19427402862985 151.12474437627813Q144.38991138377642 151.12474437627813 143.74914792092707 151.6087252897069Q143.10838445807772 152.09270620313566 142.83571915473757 152.95160190865715Q142.42672119972733 154.26039536468986 142.42672119972733 155.81458759372873V163.3946830265849ZM157.42331288343559 163.3946830265849V143.4083162917519H171.87457396046352V145.7668711656442H160.06816632583505V151.88820722563057H171.12474437627813V154.23312883435585H160.06816632583505V161.03612815269258H172.33810497614178V163.3946830265849ZM176.26448534423994 163.3946830265849V150.82481254260398H174.09679618268575V148.91615541922292H176.26448534423994V147.3755964553511Q176.26448534423994 145.91683708248127 176.5235173824131 145.2079072937969Q176.8779822767553 144.25357873210635 177.7709611451943 143.66053169734153Q178.66394001363327 143.0674846625767 180.27266530334015 143.0674846625767Q181.30879345603273 143.0674846625767 182.56305385139743 143.31288343558285L182.19495569188823 145.453306066803Q181.4314928425358 145.31697341513294 180.74982958418542 145.31697341513294Q179.6319018404908 145.31697341513294 179.16837082481254 145.7941376959782Q178.70483980913428 146.27130197682348 178.70483980913428 147.58009543285618V148.91615541922292H181.52692569870484V150.82481254260398H178.70483980913428V163.3946830265849ZM184.0218132242672 163.3946830265849V150.82481254260398H181.854124062713V148.91615541922292H184.0218132242672V147.3755964553511Q184.0218132242672 145.91683708248127 184.28084526244035 145.2079072937969Q184.63531015678254 144.25357873210635 185.5282890252215 143.66053169734153Q186.4212678936605 143.0674846625767 188.0299931833674 143.0674846625767Q189.06612133605998 143.0674846625767 190.32038173142467 143.31288343558285L189.95228357191547 145.453306066803Q189.18882072256304 145.31697341513294 188.50715746421267 145.31697341513294Q187.38922972051805 145.31697341513294 186.9256987048398 145.7941376959782Q186.46216768916153 146.27130197682348 186.46216768916153 147.58009543285618V148.91615541922292H189.2842535787321V150.82481254260398H186.46216768916153V163.3946830265849ZM201.1042944785276 158.73210633946832 203.640081799591 159.04567143830948Q203.04021813224267 161.2678936605317 201.41785957736877 162.49488752556238Q199.79550102249488 163.72188139059307 197.2733469665985 163.72188139059307Q194.09679618268575 163.72188139059307 192.23585548738924 161.7655078391275Q190.3749147920927 159.80913428766192 190.3749147920927 156.27811860940696Q190.3749147920927 152.62440354464897 192.25630538513974 150.60668029993184Q194.13769597818677 148.58895705521473 197.13701431492842 148.58895705521473Q200.04089979550102 148.58895705521473 201.88139059304703 150.56578050443082Q203.72188139059304 152.5426039536469 203.72188139059304 156.1281526925699Q203.72188139059304 156.346284935242 203.70824812542605 156.78254942058624H192.9107021131561Q193.04703476482618 159.16837082481257 194.26039536468983 160.43626448534428Q195.4737559645535 161.70415814587597 197.2869802317655 161.70415814587597Q198.63667348329926 161.70415814587597 199.59100204498978 160.99522835719156Q200.5453306066803 160.28629856850716 201.1042944785276 158.73210633946832ZM193.04703476482618 154.76482617586913H201.1315610088616Q200.96796182685753 152.93796864349014 200.20449897750512 152.02453987730064Q199.03203817314247 150.60668029993184 197.16428084526245 150.60668029993184Q195.4737559645535 150.60668029993184 194.32174505794137 151.73824130879348Q193.16973415132924 152.8698023176551 193.04703476482618 154.76482617586913ZM216.1690524880709 158.09134287661897 218.58214042263123 158.40490797546013Q218.186775732788 160.8997955010225 216.55760054533062 162.3108384458078Q214.9284253578732 163.72188139059307 212.5562372188139 163.72188139059307Q209.58418541240627 163.72188139059307 207.77777777777777 161.7791411042945Q205.97137014314927 159.83640081799592 205.97137014314927 156.20995228357194Q205.97137014314927 153.86503067484665 206.74846625766872 152.10633946830268Q207.52556237218815 150.3476482617587 209.11383776414453 149.46830265848672Q210.7021131561009 148.58895705521473 212.5698704839809 148.58895705521473Q214.9284253578732 148.58895705521473 216.42808452624405 149.7818677573279Q217.92774369461486 150.97477845944104 218.3503749147921 153.16973415132927L215.9645535105658 153.53783231083847Q215.6237218813906 152.07907293796868 214.7580095432856 151.34287661895024Q213.89229720518063 150.60668029993184 212.66530334014996 150.60668029993184Q210.81117927743693 150.60668029993184 209.6523517382413 151.93592365371507Q208.49352419904568 153.26516700749832 208.49352419904568 156.1417859577369Q208.49352419904568 159.0593047034765 209.6114519427403 160.38173142467622Q210.7293796864349 161.70415814587597 212.5289706884799 161.70415814587597Q213.9740967961827 161.70415814587597 214.94205862304023 160.81799591002047Q215.91002044989776 159.93183367416498 216.1690524880709 158.09134287661897ZM226.03953646898432 161.1997273346967 226.3940013633265 163.36741649625088Q225.35787321063395 163.585548738923 224.53987730061348 163.585548738923Q223.20381731424675 163.585548738923 222.46762099522834 163.16291751874576Q221.73142467620994 162.74028629856852 221.43149284253576 162.05180640763464Q221.1315610088616 161.36332651670077 221.1315610088616 159.15473755964555V150.82481254260398H219.33197000681662V148.91615541922292H221.1315610088616V145.33060668029995L223.57191547375595 143.85821404226314V148.91615541922292H226.03953646898432V150.82481254260398H223.57191547375595V159.29107021131563Q223.57191547375595 160.3408316291752 223.70143149284252 160.64076346284935Q223.8309475119291 160.94069529652353 224.12406271301978 161.11792774369462Q224.41717791411043 161.29516019086574 224.96250852079072 161.29516019086574Q225.37150647580094 161.29516019086574 226.03953646898432 161.1997273346967ZM235.6100886162236 156.97341513292434 238.10497614178598 156.75528289025223Q238.28220858895708 158.25494205862307 238.92978868438993 159.2160872528971Q239.5773687798228 160.17723244717112 240.94069529652353 160.77027948193594Q242.3040218132243 161.36332651670077 244.00817995910023 161.36332651670077Q245.52147239263806 161.36332651670077 246.6802999318337 160.91342876618953Q247.83912747102931 160.46353101567829 248.40490797546013 159.67961826857535Q248.97068847989095 158.89570552147242 248.97068847989095 157.9686434901159Q248.97068847989095 157.02794819359238 248.42535787321066 156.32583503749152Q247.88002726653036 155.62372188139062 246.62576687116567 155.14655760054535Q245.8214042263122 154.83299250170418 243.0674846625767 154.1717791411043Q240.3135650988412 153.51056578050446 239.2092706203136 152.92433537832312Q237.7777777777778 152.1745057941377 237.0756646216769 151.06339468302662Q236.373551465576 149.9522835719155 236.373551465576 148.57532379004775Q236.373551465576 147.0620313565099 237.23244717109748 145.74642126789365Q238.09134287661897 144.43081117927744 239.74096796182687 143.74914792092707Q241.39059304703477 143.0674846625767 243.4083162917519 143.0674846625767Q245.6305385139741 143.0674846625767 247.32788002726653 143.7832310838446Q249.025221540559 144.4989775051125 249.93865030674849 145.88957055214726Q250.85207907293798 147.28016359918203 250.92024539877303 149.03885480572598L248.38445807770964 149.22972051806408Q248.1799591002045 147.33469665985007 247.00068166325838 146.36673483299253Q245.8214042263122 145.398773006135 243.51738241308794 145.398773006135Q241.11792774369462 145.398773006135 240.02044989775052 146.278118609407Q238.92297205180643 147.15746421267895 238.92297205180643 148.39809134287663Q238.92297205180643 149.47511929107023 239.70006816632585 150.1704158145876Q240.46353101567826 150.865712338105 243.68779822767556 151.5950920245399Q246.91206543967283 152.3244717109748 248.11179277436946 152.8698023176551Q249.85685071574645 153.67416496250854 250.68847989093388 154.9079754601227Q251.52010906612134 156.1417859577369 251.52010906612134 157.75051124744377Q251.52010906612134 159.34560327198366 250.60668029993184 160.75664621676896Q249.69325153374234 162.16768916155422 247.9822767552829 162.95160190865715Q246.27130197682345 163.73551465576008 244.1308793456033 163.73551465576008Q241.4178595773688 163.73551465576008 239.58418541240627 162.94478527607365Q237.75051124744377 162.1540558963872 236.7075664621677 160.56578050443085Q235.66462167689164 158.97750511247446 235.6100886162236 156.97341513292434ZM254.71029311520107 168.97068847989095 254.43762781186092 166.66666666666669Q255.24199045671438 166.8847989093388 255.8418541240627 166.8847989093388Q256.65985003408315 166.8847989093388 257.15064758009544 166.61213360599865Q257.64144512610767 166.3394683026585 257.95501022494886 165.84867075664624Q258.18677573278796 165.48057259713704 258.7048398091343 164.02181322426722Q258.7730061349693 163.81731424676212 258.92297205180637 163.4219495569189L253.42876618950237 148.91615541922292H256.0736196319018L259.0865712338105 157.30061349693253Q259.6728016359918 158.89570552147242 260.13633265167005 160.65439672801637Q260.5589638718473 158.96387184730744 261.1451942740286 157.35514655760056L264.23994546693933 148.91615541922292H266.69393319700066L261.18609406952964 163.64008179959103Q260.2999318336742 166.02590320381734 259.8091342876619 166.92569870483982Q259.1547375596455 168.1390593047035 258.30947511929105 168.7048398091343Q257.4642126789366 169.27062031356513 256.29175187457395 169.27062031356513Q255.58282208588957 169.27062031356513 254.71029311520107 168.97068847989095ZM267.7982276755283 159.07293796864352 270.2249488752556 158.6912065439673Q270.42944785276075 160.1499659168371 271.3633265167008 160.9270620313565Q272.2972051806408 161.70415814587597 273.9740967961827 161.70415814587597Q275.6646216768916 161.70415814587597 276.48261758691206 161.0156782549421Q277.30061349693256 160.3271983640082 277.30061349693256 159.4001363326517Q277.30061349693256 158.56850715746424 276.5780504430811 158.09134287661897Q276.07361963190186 157.76414451261078 274.0695296523518 157.2597137014315Q271.3701431492843 156.57805044308114 270.3271983640082 156.08043626448534Q269.28425357873215 155.58282208588957 268.74573960463533 154.7034764826176Q268.2072256305385 153.82413087934563 268.2072256305385 152.76073619631904Q268.2072256305385 151.7927743694615 268.6503067484663 150.96796182685756Q269.09338786639404 150.1431492842536 269.8568507157464 149.5978186775733Q270.42944785276075 149.17518745739608 271.4178595773688 148.8820722563054Q272.40627130197686 148.58895705521473 273.53783231083844 148.58895705521473Q275.2419904567144 148.58895705521473 276.5303340149966 149.07975460122702Q277.8186775732788 149.57055214723928 278.43217450579414 150.40899795501025Q279.0456714383095 151.24744376278122 279.2774369461486 152.65167007498297L276.8779822767553 152.97886843899116Q276.7143830947512 151.86094069529653 275.9304703476483 151.23381049761417Q275.14655760054535 150.60668029993184 273.71506475800953 150.60668029993184Q272.02453987730064 150.60668029993184 271.30197682344925 151.16564417177915Q270.57941376959786 151.72460804362646 270.57941376959786 152.47443762781188Q270.57941376959786 152.95160190865715 270.879345603272 153.33333333333334Q271.17927743694617 153.72869802317658 271.8200408997955 153.9877300613497Q272.1881390593047 154.12406271301978 273.98773006134974 154.61486025903207Q276.5916837082481 155.31015678254943 277.6209952283572 155.7532379004772Q278.6503067484663 156.19631901840492 279.23653715064756 157.0415814587594Q279.8227675528289 157.88684389911387 279.8227675528289 159.14110429447854Q279.8227675528289 160.36809815950923 279.10702113156105 161.4519427402863Q278.39127471029315 162.53578732106342 277.0415814587594 163.12883435582825Q275.69188820722565 163.72188139059307 273.98773006134974 163.72188139059307Q271.16564417177915 163.72188139059307 269.6864349011588 162.54942058623044Q268.2072256305385 161.37695978186778 267.7982276755283 159.07293796864352ZM288.09815950920245 161.1997273346967 288.45262440354463 163.36741649625088Q287.41649625085205 163.585548738923 286.5985003408316 163.585548738923Q285.2624403544649 163.585548738923 284.5262440354465 163.16291751874576Q283.7900477164281 162.74028629856852 283.4901158827539 162.05180640763464Q283.19018404907973 161.36332651670077 283.19018404907973 159.15473755964555V150.82481254260398H281.39059304703477V148.91615541922292H283.19018404907973V145.33060668029995L285.6305385139741 143.85821404226314V148.91615541922292H288.09815950920245V150.82481254260398H285.6305385139741V159.29107021131563Q285.6305385139741 160.3408316291752 285.76005453306067 160.64076346284935Q285.88957055214723 160.94069529652353 286.1826857532379 161.11792774369462Q286.4758009543285 161.29516019086574 287.0211315610089 161.29516019086574Q287.43012951601906 161.29516019086574 288.09815950920245 161.1997273346967ZM300.40899795501025 158.73210633946832 302.9447852760736 159.04567143830948Q302.34492160872526 161.2678936605317 300.7225630538514 162.49488752556238Q299.1002044989775 163.72188139059307 296.5780504430811 163.72188139059307Q293.4014996591684 163.72188139059307 291.54055896387183 161.7655078391275Q289.6796182685753 159.80913428766192 289.6796182685753 156.27811860940696Q289.6796182685753 152.62440354464897 291.5610088616223 150.60668029993184Q293.4423994546694 148.58895705521473 296.44171779141107 148.58895705521473Q299.34560327198363 148.58895705521473 301.18609406952964 150.56578050443082Q303.02658486707566 152.5426039536469 303.02658486707566 156.1281526925699Q303.02658486707566 156.346284935242 303.01295160190864 156.78254942058624H292.2154055896387Q292.3517382413088 159.16837082481257 293.56509884117247 160.43626448534428Q294.77845944103615 161.70415814587597 296.5916837082481 161.70415814587597Q297.94137695978185 161.70415814587597 298.8957055214724 160.99522835719156Q299.85003408316294 160.28629856850716 300.40899795501025 158.73210633946832ZM292.3517382413088 154.76482617586913H300.4362644853442Q300.27266530334015 152.93796864349014 299.5092024539877 152.02453987730064Q298.3367416496251 150.60668029993184 296.46898432174504 150.60668029993184Q294.77845944103615 150.60668029993184 293.626448534424 151.73824130879348Q292.4744376278119 152.8698023176551 292.3517382413088 154.76482617586913ZM306.02590320381734 163.3946830265849V148.91615541922292H308.22085889570553V150.94751192910704Q308.90252215405593 149.88411724608045 310.03408316291757 149.2365371506476Q311.16564417177915 148.58895705521473 312.610770279482 148.58895705521473Q314.21949556918884 148.58895705521473 315.2488070892979 149.25698704839812Q316.278118609407 149.92501704158147 316.7007498295842 151.12474437627813Q318.4185412406272 148.58895705521473 321.1724608043627 148.58895705521473Q323.32651670074983 148.58895705521473 324.48534423994545 149.7818677573279Q325.6441717791411 150.97477845944104 325.6441717791411 153.45603271983643V163.3946830265849H323.2038173142468V154.27402862985687Q323.2038173142468 152.80163599182006 322.96523517382417 152.1540558963872Q322.72665303340153 151.50647580095435 322.0995228357192 151.11111111111114Q321.4723926380368 150.7157464212679 320.6271301976824 150.7157464212679Q319.1002044989775 150.7157464212679 318.09134287661897 151.73142467620997Q317.0824812542604 152.74710293115203 317.0824812542604 154.98295841854127V163.3946830265849H314.6284935241991V153.9877300613497Q314.6284935241991 152.35173824130882 314.0286298568508 151.53374233128835Q313.4287661895024 150.7157464212679 312.06543967280163 150.7157464212679Q311.0293115201091 150.7157464212679 310.1499659168371 151.2610770279482Q309.27062031356513 151.8064076346285 308.8752556237219 152.8561690524881Q308.47989093387866 153.90593047034767 308.47989093387866 155.88275391956375V163.3946830265849Z"/></g>
</svg>
